# AST/ASF file generated using VICON BodyLanguage
# -----------------------------------------------
:version 1.10
:name VICON
:units
  mass 1.0
  length 0.45
  angle deg
:documentation
   .ast/.asf automatically generated from VICON data using
   VICON BodyBuilder and BodyLanguage model FoxedUp or BRILLIANT.MOD
:root
   order TX TY TZ RX RY RZ
   axis XYZ
   position 0 0 0  
   orientation 0 0 0 
:bonedata
  begin
     id 1 
     name lhipjoint
     direction 0.521452 -0.77106 0.36545 
     length 2.0933 
     axis 0 0 0  XYZ
  end
  begin
     id 2 
     name lfemur
     direction 0.34202 -0.939693 0  
     length 6.83441  
     axis 0 0 20  XYZ
    dof rx ry rz
    limits (-160.0 20.0)
           (-70.0 70.0)
           (-60.0 70.0)
  end
  begin
     id 3 
     name ltibia
     direction 0.34202 -0.939693 0   
     length 7.28749   
     axis 0 0 20   XYZ
    dof rx
    limits (-10.0 170.0)
  end
  begin
     id 4 
     name lfoot
     direction 0.100608 -0.276418 0.955757   
     length 1.52195   
     axis -90 7.62852e-016 20   XYZ
    dof rx rz
    limits (-45.0 90.0)
           (-70.0 20.0)
  end
  begin
     id 5 
     name ltoes
     direction 1.53558e-011 -4.21907e-011 1   
     length 0.770459   
     axis -90 7.62852e-016 20   XYZ
    dof rx
    limits (-90.0 20.0)
  end
  begin
     id 6 
     name rhipjoint
     direction -0.488071 -0.788702 0.373812   
     length 2.04648  
     axis 0 0 0  XYZ 
  end
  begin
     id 7 
     name rfemur
     direction -0.34202 -0.939693 0   
     length 6.92583   
     axis 0 0 -20   XYZ
    dof rx ry rz
    limits (-160.0 20.0)
           (-70.0 70.0)
           (-70.0 60.0)
  end
  begin
     id 8 
     name rtibia
     direction -0.34202 -0.939693 0   
     length 7.41043   
     axis 0 0 -20   XYZ
    dof rx
    limits (-10.0 170.0)
 end
 begin
     id 9 
     name rfoot
     direction -0.0784433 -0.215521 0.973343   
     length 1.67708  
     axis -90 -7.62852e-016 -20   XYZ
    dof rx rz
    limits (-45.0 90.0)
           (-20.0 70.0)
  end
  begin
     id 10 
     name rtoes
     direction -1.53551e-011 -4.21842e-011 1   
     length 0.849787   
     axis -90 -7.62852e-016 -20   XYZ
    dof rx
    limits (-90.0 20.0)
  end
  begin
     id 11 
     name lowerback
     direction -0.0122332 0.997575 -0.0685192   
     length 1.98724   
     axis 0 0 0   XYZ
    dof rx ry rz
    limits (-20.0 45.0)
           (-30.0 30.0)
           (-30.0 30.0)
  end
  begin
     id 12 
     name upperback
     direction 0.0182347 0.999724 -0.0148421   
     length 1.99029   
     axis 0 0 0   XYZ
    dof rx ry rz
    limits (-20.0 45.0)
           (-30.0 30.0)
           (-30.0 30.0)
  end
  begin
     id 13 
     name thorax
     direction 0.0242908 0.99956 0.0170184   
     length 1.99573   
     axis 0 0 0   XYZ
    dof rx ry rz
    limits (-20.0 45.0)
           (-30.0 30.0)
           (-30.0 30.0)
  end
  begin
     id 14 
     name lowerneck
     direction 0.0654488 0.985533 0.156338   
     length 1.4285   
     axis 0 0 0   XYZ
    dof rx ry rz
    limits (-20.0 45.0)
           (-30.0 30.0)
           (-30.0 30.0)
  end
  begin
     id 15 
     name upperneck
     direction -0.02953 0.998556 -0.0448842   
     length 1.44709   
     axis 0 0 0   XYZ
    dof rx ry rz
    limits (-20.0 45.0)
           (-30.0 30.0)
           (-30.0 30.0)
  end
  begin
     id 16
     name head
     direction -0.0155588 0.999386 -0.0314063  
     length 1.44689  
     axis 0 0 0   XYZ
    dof rx ry rz
    limits (-20.0 45.0)
           (-30.0 30.0)
           (-30.0 30.0)
  end
  begin
     id 17 
     name lclavicle
     direction 0.968229 0.236071 -0.0824755  
     length 3.60593  
     axis 0 0 0   XYZ
    dof ry rz
    limits (-20.0 10.0)
           (0.0 20.0)
  end
  begin
     id 18 
     name lhumerus
     direction 1 -4.48968e-011 7.8138e-029   
     length 5.06035   
     axis 180 -30 -90   XYZ
    dof rx ry rz
    limits (-60.0 90.0)
           (-90.0 90.0)
           (-90.0 90.0)
  end
  begin
     id 19
     name lradius
     direction 1 -4.48967e-011 9.02887e-028   
     length 3.1478   
     axis 180 -30 -90   XYZ
    dof rx
    limits (-10.0 170.0)
  end
  begin
     id 20
     name lwrist
     direction 1 -4.48961e-011 7.20928e-028   
     length 1.5739   
     axis -5.52449e-016 90 90   XYZ
    dof ry
    limits (-180.0 0.0)
 end
  begin
     id 21 
     name lhand
     direction 1 -4.48972e-011 1.44186e-027   
     length 0.606747   
     axis -9.20027e-016 90 90   XYZ
    dof rx rz
    limits (-90.0 90.0)
           (-45.0 45.0)
  end
  begin
     id 22 
     name lfingers
     direction 1 -4.48943e-011 2.88371e-027   
     length 0.489175   
     axis -1.84005e-015 90 90   XYZ
    dof rx
    limits (0.0 90.0)
  end
  begin
     id 23
     name lthumb
     direction 0.707107 -6.34917e-011 0.707107   
     length 0.70236   
     axis -90 45 2.85299e-015   XYZ
    dof rx rz
    limits (-45.0 45.0)
           (-45.0 45.0)
  end
  begin
     id 24 
     name rclavicle
     direction -0.978165 0.207816 0.0022268   
     length 3.35425  
     axis 0 0 0   XYZ 
    dof ry rz
    limits (-10.0 20.0)
           (-20.0 0.0)
  end
  begin
     id 25 
     name rhumerus
     direction -1 -4.48964e-011 -4.02159e-027  
     length 5.12273   
     axis 180 30 90   XYZ
    dof rx ry rz
    limits (-90.0 60.0)
           (-90.0 90.0)
           (-90.0 90.0)
  end
  begin
     id 26 
     name rradius
     direction -1 -4.48966e-011 1.62746e-027   
     length 3.422   
     axis 180 30 90   XYZ
    dof rx
    limits (-10.0 170.0)
  end
  begin
     id 27 
     name rwrist
     direction -1 -4.4896e-011 7.20928e-028   
     length 1.711   
     axis -5.52449e-016 -90 -90   XYZ
    dof ry
    limits (-180.0 0.0)
  end
  begin
     id 28
     name rhand
     direction -1 -4.48979e-011 1.44186e-027   
     length 0.704599   
     axis -9.20027e-016 -90 -90   XYZ
    dof rx rz
    limits (-90.0 90.0)
           (-45.0 45.0)
  end
  begin
     id 29
     name rfingers
     direction -1 -4.48962e-011 2.88371e-027   
     length 0.568066   
     axis -1.84005e-015 -90 -90   XYZ
    dof rx
    limits (0.0 90.0)
  end
  begin
     id 30
     name rthumb
     direction -0.707107 -6.34949e-011 0.707107   
     length 0.815633   
     axis -90 -45 -2.85299e-015   XYZ
    dof rx rz
    limits (-45.0 45.0)
           (-45.0 45.0)
  end
:hierarchy
  begin
    root lhipjoint rhipjoint lowerback
    lhipjoint lfemur
    lfemur ltibia
    ltibia lfoot
    lfoot ltoes
    rhipjoint rfemur
    rfemur rtibia
    rtibia rfoot
    rfoot rtoes
    lowerback upperback
    upperback thorax
    thorax lowerneck lclavicle rclavicle
    lowerneck upperneck
    upperneck head
    lclavicle lhumerus
    lhumerus lradius
    lradius lwrist
    lwrist lhand lthumb
    lhand lfingers
    rclavicle rhumerus
    rhumerus rradius
    rradius rwrist
    rwrist rhand rthumb
    rhand rfingers
  end

#!OML:ASF E:\id_vita\Project 1\Capture day 1\Session 1\Male1.ASF
:FULLY-SPECIFIED
:DEGREES
375
root 41.1752 13.8869 0.251365 -117.611 -88.8521 164.08
lowerback 22.8123 -3.3458 1.3567
upperback 11.2866 -5.04504 -4.80292
thorax -0.873527 -2.61544 -4.75977
lowerneck -11.188 4.1133 -1.41481
upperneck 44.3307 1.02159 5.20883
head 18.5678 0.242209 2.73789
rclavicle 5.88403e-014 4.33351e-014
rhumerus 49.4343 20.1438 -70.4861
rradius 38.4186
rwrist 33.4828
rhand -30.0853 31.271
rfingers 7.12502
rthumb -3.39987 1.31835
lclavicle 5.88403e-014 4.33351e-014
lhumerus 48.8297 -14.5626 46.3837
lradius 36.0758
lwrist -25.8164
lhand -44.3555 83.4947
lfingers 7.12502
lthumb -17.1634 247.243
rfemur -42.6949 5.92639 21.2009
rtibia 57.1675
rfoot -40.8271 -26.4378
rtoes -14.5841
lfemur -92.9175 3.87154 -26.1339
ltibia 74.0682
lfoot -32.3377 0.0288738
ltoes -19.7037
376
root 41.184 13.8874 0.242951 -121.683 -88.7261 168.122
lowerback 22.9229 -3.26927 1.25646
upperback 11.319 -4.98094 -4.89779
thorax -0.886557 -2.58807 -4.81728
lowerneck -11.2102 4.09462 -1.3548
upperneck 44.2942 0.976198 5.23548
head 18.5554 0.239426 2.73084
rclavicle -3.49861e-014 -8.01102e-014
rhumerus 49.5967 20.0842 -70.3266
rradius 38.438
rwrist 33.2279
rhand -30.043 31.2303
rfingers 7.12502
rthumb -3.35895 1.27705
lclavicle -3.49861e-014 -8.01102e-014
lhumerus 49.1017 -14.5378 46.0539
lradius 36.0398
lwrist -25.4952
lhand -44.3746 82.6027
lfingers 7.12502
lthumb -17.1818 248.137
rfemur -42.4286 6.20963 21.1507
rtibia 56.9272
rfoot -41.0454 -26.4823
rtoes -13.9549
lfemur -92.8996 4.0461 -26.1207
ltibia 73.9952
lfoot -32.2988 -0.164234
ltoes -19.504
377
root 41.1835 13.9074 0.230588 -130.231 -88.4802 176.559
lowerback 23.1398 -3.12741 1.05175
upperback 11.3265 -4.85806 -4.98548
thorax -0.965217 -2.53774 -4.81585
lowerneck -11.1884 4.09383 -1.37434
upperneck 44.332 0.961219 5.26124
head 18.5737 0.231758 2.74543
rclavicle -6.52014e-014 -7.71285e-014
rhumerus 49.6938 20.142 -70.2505
rradius 38.421
rwrist 32.9716
rhand -29.9873 31.1888
rfingers 7.12502
rthumb -3.30517 1.23469
lclavicle -6.52014e-014 -7.71285e-014
lhumerus 49.2957 -14.5047 45.7541
lradius 35.8661
lwrist -25.4784
lhand -44.5453 82.6636
lfingers 7.12502
lthumb -17.3461 248.09
rfemur -42.5642 6.63422 21.1286
rtibia 56.5668
rfoot -39.3483 -28.6603
rtoes -17.779
lfemur -92.6693 4.43919 -26.1448
ltibia 73.8536
lfoot -32.3287 -0.0417619
ltoes -20.1713
378
root 41.1881 13.914 0.226433 -127.533 -88.5053 173.725
lowerback 23.3644 -3.17193 1.07139
upperback 11.3962 -4.92407 -5.04201
thorax -1.00957 -2.57059 -4.86445
lowerneck -11.3361 4.09073 -1.53534
upperneck 44.3964 0.961607 5.36472
head 18.6506 0.218061 2.83245
rclavicle 4.6118e-014 1.78906e-015
rhumerus 49.8889 20.1961 -70.0851
rradius 38.4165
rwrist 32.759
rhand -29.9758 31.2342
rfingers 7.12502
rthumb -3.29404 1.27989
lclavicle 4.6118e-014 1.78906e-015
lhumerus 49.5293 -14.4172 45.4875
lradius 35.6969
lwrist -25.4278
lhand -44.6879 82.2853
lfingers 7.12502
lthumb -17.4833 248.481
rfemur -42.0976 6.56815 21.1342
rtibia 56.2475
rfoot -40.5012 -27.5619
rtoes -16.2135
lfemur -92.4656 4.40314 -26.1769
ltibia 73.7319
lfoot -32.3209 0.219587
ltoes -21.0194
379
root 41.193 13.9212 0.221511 -125.851 -88.5726 171.887
lowerback 23.6263 -3.19925 1.14984
upperback 11.4748 -4.95683 -5.08318
thorax -1.06133 -2.58561 -4.93687
lowerneck -11.5153 4.05679 -1.67815
upperneck 44.4127 0.932222 5.45817
head 18.7089 0.197833 2.90539
rclavicle 4.77083e-015 5.96354e-015
rhumerus 50.045 20.1315 -69.8771
rradius 38.487
rwrist 32.7009
rhand -29.9762 31.3055
rfingers 7.12502
rthumb -3.29443 1.3512
lclavicle 4.77083e-015 5.96354e-015
lhumerus 49.7791 -14.3008 45.382
lradius 35.517
lwrist -25.3002
lhand -45.1827 83.2739
lfingers 7.12502
lthumb -17.9594 247.535
rfemur -41.621 6.42786 21.2627
rtibia 55.913
rfoot -40.9753 -27.0972
rtoes -15.4741
lfemur -92.2683 4.40648 -26.1785
ltibia 73.6246
lfoot -32.2733 0.286617
ltoes -21.1376
380
root 41.1925 13.9369 0.209009 -137.274 -88.52 183.149
lowerback 23.8458 -3.12498 1.21757
upperback 11.5621 -4.86822 -5.14042
thorax -1.07082 -2.54266 -5.05455
lowerneck -11.7352 4.07171 -1.84561
upperneck 44.4628 0.908318 5.70213
head 18.7981 0.190179 3.05882
rclavicle -6.20208e-014 -4.77083e-015
rhumerus 50.1954 20.0409 -69.9141
rradius 38.5624
rwrist 32.7323
rhand -29.9767 31.3947
rfingers 7.12502
rthumb -3.29491 1.44046
lclavicle -6.20208e-014 -4.77083e-015
lhumerus 50.017 -14.248 44.9107
lradius 35.4008
lwrist -25.0763
lhand -45.5312 83.1117
lfingers 7.12502
lthumb -18.2948 247.729
rfemur -41.5984 6.67244 21.5259
rtibia 55.5036
rfoot -39.5727 -28.6089
rtoes -17.5049
lfemur -92.0613 4.83657 -26.0671
ltibia 73.5586
lfoot -32.3593 0.356204
ltoes -21.2695
381
root 41.1952 13.9418 0.206135 -140.859 -88.7534 186.458
lowerback 24.1263 -3.19314 1.48475
upperback 11.7396 -4.91758 -5.14986
thorax -1.03211 -2.55965 -5.20051
lowerneck -11.9574 4.00201 -2.01144
upperneck 44.4756 0.728489 6.02303
head 18.8772 0.133139 3.22124
rclavicle 3.65764e-014 8.54774e-015
rhumerus 50.4877 19.8865 -69.7414
rradius 38.632
rwrist 32.3383
rhand -29.9836 31.457
rfingers 7.12502
rthumb -3.30159 1.5028
lclavicle 3.65764e-014 8.54774e-015
lhumerus 50.4768 -14.1515 44.4446
lradius 35.2427
lwrist -24.671
lhand -45.6489 84.0935
lfingers 7.12502
lthumb -18.4079 246.757
rfemur -40.7894 6.5099 21.8872
rtibia 55.1517
rfoot -40.9659 -27.156
rtoes -14.0896
lfemur -91.7554 4.82298 -25.8368
ltibia 73.5358
lfoot -32.4698 0.279915
ltoes -21.2004
